<?xml version="1.0" encoding="utf-8"?>
<!-- Generator: Adobe Illustrator 16.0.0, SVG Export Plug-In . SVG Version: 6.00 Build 0)  -->
<!DOCTYPE svg PUBLIC "-//W3C//DTD SVG 1.1//EN" "http://www.w3.org/Graphics/SVG/1.1/DTD/svg11.dtd">
<svg version="1.1" id="Layer_1" xmlns="http://www.w3.org/2000/svg" xmlns:xlink="http://www.w3.org/1999/xlink" x="0px" y="0px"
	 width="61.291px" height="38.774px" viewBox="0 0 61.291 38.774" enable-background="new 0 0 61.291 38.774" xml:space="preserve">
<g>
	<g>
		<text transform="matrix(1 0 0 1 -11.2119 74.3438)" fill="#2C649D" font-family="'OpenSans-Bold'" font-size="15">go to stake</text>
	</g>
	<path fill-rule="evenodd" clip-rule="evenodd" fill="#5590CC" d="M58.068,30.693L58.16,3.131L8.078,3.162V0h53.213v30.697
		L58.068,30.693z M56.443,35.543h-3.221l0.09-27.563L3.232,8.009L3.23,4.848h53.213V35.543z M51.697,38.774H0V9.693h51.697V38.774z
		 M48.467,12.823H3.23v22.72h45.236V12.823z M43.621,33.121c0,0.285,0.07,0.552,0.162,0.807H25.848c4.463,0,8.078-4.339,8.078-9.693
		c0-5.354-3.615-9.691-8.078-9.691h17.936c-0.092,0.256-0.162,0.521-0.162,0.807c0,1.338,1.084,2.422,2.422,2.422
		c0.287,0,0.553-0.07,0.809-0.162v13.25c-0.256-0.09-0.521-0.164-0.809-0.164C44.705,30.697,43.621,31.783,43.621,33.121z
		 M40.389,20.87c-1.338,0-2.424,1.448-2.424,3.23c0,1.785,1.086,3.232,2.424,3.232s2.424-1.447,2.424-3.232
		C42.812,22.317,41.727,20.87,40.389,20.87z M29.23,18.41c0.023,0.046,0.043,0.11,0.061,0.186c0.018,0.08,0.029,0.179,0.035,0.296
		c0.008,0.117,0.01,0.264,0.01,0.438c0,0.196-0.004,0.363-0.016,0.497c-0.01,0.135-0.025,0.245-0.049,0.334
		c-0.023,0.086-0.059,0.151-0.102,0.19c-0.045,0.042-0.104,0.062-0.178,0.062c-0.072,0-0.191-0.049-0.352-0.142
		c-0.162-0.094-0.361-0.194-0.596-0.305c-0.236-0.109-0.508-0.211-0.818-0.301c-0.309-0.089-0.648-0.136-1.02-0.136
		c-0.289,0-0.541,0.036-0.756,0.107s-0.396,0.166-0.541,0.29c-0.145,0.126-0.252,0.274-0.322,0.449
		c-0.07,0.175-0.105,0.358-0.105,0.551c0,0.29,0.078,0.542,0.236,0.752c0.158,0.214,0.371,0.403,0.637,0.566
		c0.266,0.165,0.566,0.319,0.902,0.465c0.336,0.145,0.68,0.298,1.029,0.458c0.35,0.162,0.693,0.346,1.029,0.55
		c0.336,0.207,0.637,0.452,0.898,0.738c0.264,0.287,0.475,0.622,0.637,1.009c0.16,0.387,0.242,0.843,0.242,1.367
		c0,0.684-0.129,1.289-0.383,1.805c-0.258,0.519-0.604,0.952-1.041,1.296c-0.438,0.347-0.947,0.609-1.533,0.783
		c-0.074,0.021-0.154,0.031-0.23,0.049v1.765h-1.59v-1.554c-0.02,0-0.037,0.003-0.059,0.003c-0.449,0-0.869-0.038-1.256-0.11
		c-0.387-0.075-0.729-0.162-1.023-0.266c-0.297-0.104-0.545-0.211-0.742-0.327c-0.199-0.113-0.342-0.211-0.43-0.297
		s-0.15-0.214-0.188-0.379c-0.037-0.165-0.055-0.404-0.055-0.713c0-0.208,0.006-0.382,0.02-0.523
		c0.014-0.143,0.035-0.258,0.066-0.346c0.029-0.085,0.07-0.148,0.121-0.188c0.049-0.036,0.109-0.053,0.176-0.053
		c0.094,0,0.227,0.053,0.4,0.166c0.17,0.111,0.391,0.234,0.66,0.367c0.27,0.135,0.59,0.257,0.963,0.367
		c0.373,0.113,0.807,0.167,1.297,0.167c0.324,0,0.613-0.039,0.869-0.115c0.256-0.078,0.473-0.189,0.65-0.33
		c0.178-0.139,0.314-0.316,0.41-0.524c0.092-0.21,0.139-0.445,0.139-0.698c0-0.298-0.08-0.554-0.24-0.763
		c-0.162-0.215-0.373-0.402-0.631-0.566c-0.26-0.164-0.555-0.319-0.883-0.463c-0.33-0.146-0.67-0.298-1.02-0.46
		c-0.35-0.161-0.689-0.342-1.02-0.549c-0.33-0.206-0.623-0.451-0.883-0.739c-0.258-0.285-0.469-0.624-0.631-1.011
		c-0.16-0.392-0.242-0.861-0.242-1.405c0-0.625,0.117-1.175,0.348-1.649c0.232-0.474,0.545-0.866,0.939-1.179
		c0.393-0.31,0.857-0.549,1.393-0.703c0.273-0.077,0.559-0.136,0.85-0.176v-1.67h1.59v1.67c0.064,0.009,0.127,0.004,0.189,0.015
		c0.311,0.045,0.6,0.108,0.869,0.189c0.268,0.081,0.506,0.169,0.715,0.271c0.209,0.1,0.348,0.184,0.414,0.25
		C29.162,18.305,29.207,18.361,29.23,18.41z M17.771,24.234c0,5.354,3.615,9.693,8.076,9.693H7.914
		c0.09-0.255,0.164-0.521,0.164-0.807c0-1.338-1.086-2.424-2.424-2.424c-0.287,0-0.553,0.074-0.809,0.164V17.61
		c0.256,0.091,0.521,0.162,0.809,0.162c1.338,0,2.424-1.084,2.424-2.422c0-0.286-0.074-0.55-0.164-0.807h17.934
		C21.387,14.543,17.771,18.881,17.771,24.234z M11.309,20.87c-1.338,0-2.424,1.448-2.424,3.23c0,1.785,1.086,3.232,2.424,3.232
		s2.422-1.447,2.422-3.232C13.73,22.317,12.646,20.87,11.309,20.87z"/>
</g>
</svg>
