<?xml version="1.0" encoding="utf-8"?>
<!-- Generator: Adobe Illustrator 16.0.0, SVG Export Plug-In . SVG Version: 6.00 Build 0)  -->
<!DOCTYPE svg PUBLIC "-//W3C//DTD SVG 1.1//EN" "http://www.w3.org/Graphics/SVG/1.1/DTD/svg11.dtd">
<svg version="1.1" id="Layer_1" xmlns="http://www.w3.org/2000/svg" xmlns:xlink="http://www.w3.org/1999/xlink" x="0px" y="0px"
	 width="45.95px" height="46.035px" viewBox="0 0 45.95 46.035" enable-background="new 0 0 45.95 46.035" xml:space="preserve">
<g>
	<g>
		<text transform="matrix(1 0 0 1 6.396 77.9741)" fill="#2C649D" font-family="'OpenSans-Bold'" font-size="15">Edit</text>
	</g>
	<g>
		<path fill="#5590CC" d="M45.07,0.878C44.485,0.293,43.715,0,42.948,0s-1.535,0.293-2.121,0.878l-7.215,7.215L32.614,9.09
			l-0.941,0.944l-5.748,5.748L16,25.704v0.001v4.329h4.16h0.002l4.893-4.897L36,14.194l0.16-0.16l0,0l0.512-0.513l0,0l8.397-8.4
			C46.243,3.951,46.243,2.05,45.07,0.878z"/>
		<polygon fill="#5590CC" points="37.415,15.606 26.47,26.552 21.577,31.446 20.991,32.034 20.163,32.034 16,32.034 14,32.034 
			14,30.034 14,25.704 14,24.876 14.586,24.291 24.511,14.367 30.258,8.618 30.844,8.034 0,8.034 0,46.035 38,46.035 38,15.021 
			37.571,15.45 		"/>
	</g>
</g>
</svg>
