<?xml version="1.0" encoding="utf-8"?>
<!-- Generator: Adobe Illustrator 16.0.0, SVG Export Plug-In . SVG Version: 6.00 Build 0)  -->
<!DOCTYPE svg PUBLIC "-//W3C//DTD SVG 1.1//EN" "http://www.w3.org/Graphics/SVG/1.1/DTD/svg11.dtd">
<svg version="1.1" id="Layer_1" xmlns="http://www.w3.org/2000/svg" xmlns:xlink="http://www.w3.org/1999/xlink" x="0px" y="0px"
	 width="50px" height="33.994px" viewBox="0 0 50 33.994" enable-background="new 0 0 50 33.994" xml:space="preserve">
<g>
	<g>
		<path fill="#5590CC" d="M0,0v2h1.469L2,6c0,1.199,0.532,2.27,1.371,3h43.257C47.467,8.27,48,7.199,48,6l0.529-4H50V0H0z"/>
		<path fill="#5590CC" d="M7.819,30.177c0.369,2.091,1.709,3.816,3.818,3.816h26.727c2.107,0,3.387-1.694,3.818-3.816L45.469,11
			H4.53L7.819,30.177z M17.571,14.96l1.414-1.415L25,19.56l6.016-6.015l1.414,1.415l-6.016,6.013l6.035,6.036l-1.415,1.414
			L25,22.387l-6.035,6.036l-1.414-1.414l6.035-6.036L17.571,14.96z"/>
	</g>
	<g>
		<text transform="matrix(1 0 0 1 -6.2671 71.9536)" fill="#2C649D" font-family="'OpenSans-Bold'" font-size="15">remove</text>
	</g>
</g>
</svg>
