<?xml version="1.0" encoding="utf-8"?>
<!-- Generator: Adobe Illustrator 16.0.0, SVG Export Plug-In . SVG Version: 6.00 Build 0)  -->
<!DOCTYPE svg PUBLIC "-//W3C//DTD SVG 1.1//EN" "http://www.w3.org/Graphics/SVG/1.1/DTD/svg11.dtd">
<svg version="1.1" id="Layer_1" xmlns="http://www.w3.org/2000/svg" xmlns:xlink="http://www.w3.org/1999/xlink" x="0px" y="0px"
	 width="60px" height="36px" viewBox="0 0 60 36" enable-background="new 0 0 60 36" xml:space="preserve">
<g>
	<g>
		<text transform="matrix(1 0 0 1 1.9727 72.9551)"><tspan x="0" y="0" fill="#2C649D" font-family="'OpenSans-Bold'" font-size="15">Follow</tspan><tspan x="-16.957" y="18" fill="#2C649D" font-family="'OpenSans-Bold'" font-size="15">competition</tspan></text>
	</g>
	<g>
		<path fill="#5590CC" d="M30,0C19.033,0,10.484,6.865,0,17.994C9.033,27.509,16.613,36,30,36s23.226-10.748,30-17.806
			C53.065,9.929,43.226,0,30,0z M30,29.999c-6.617,0-12-5.382-12-11.999c0-6.615,5.383-11.999,12-11.999S42,11.385,42,18
			C42,24.617,36.617,29.999,30,29.999z"/>
		<path fill="#5590CC" d="M30,11c-3.859,0-7,3.142-7,7c0,3.86,3.141,7,7,7s7-3.14,7-7C37,14.142,33.859,11,30,11z"/>
	</g>
</g>
</svg>
