<?xml version="1.0" encoding="utf-8"?>
<!-- Generator: Adobe Illustrator 16.0.0, SVG Export Plug-In . SVG Version: 6.00 Build 0)  -->
<!DOCTYPE svg PUBLIC "-//W3C//DTD SVG 1.1//EN" "http://www.w3.org/Graphics/SVG/1.1/DTD/svg11.dtd">
<svg version="1.1" id="Layer_1" xmlns="http://www.w3.org/2000/svg" xmlns:xlink="http://www.w3.org/1999/xlink" x="0px" y="0px"
	 width="29.438px" height="29.431px" viewBox="0 0 29.438 29.431" enable-background="new 0 0 29.438 29.431" xml:space="preserve">
<g>
	<g id="Crown_34_">
		<g>
			<path fill="#F9D422" d="M29.201,14.863L24.84,8.182l-3.344,4.138c-0.964-0.104-1.914-0.18-2.792-0.232l-2.748-6.873
				c0.898-0.455,1.524-1.379,1.524-2.455C17.48,1.238,16.241,0,14.72,0s-2.76,1.238-2.76,2.759c0,1.076,0.624,2,1.524,2.455
				l-2.75,6.873c-0.875,0.053-1.829,0.128-2.791,0.232L4.601,8.178l-4.361,6.685C0.089,15.103,0,15.36,0,15.64v10.118
				c0,3.577,13.213,3.682,14.72,3.682s14.719-0.104,14.719-3.682V15.64C29.438,15.36,29.35,15.103,29.201,14.863z M24.84,10.896
				l1.746,2.387c-0.946-0.302-2.051-0.538-3.206-0.717L24.84,10.896z M14.72,1.841c0.509,0,0.92,0.411,0.92,0.918
				s-0.411,0.92-0.92,0.92s-0.919-0.412-0.919-0.92S14.211,1.841,14.72,1.841z M14.72,7.078l1.967,4.918
				c-0.967-0.034-1.68-0.038-1.967-0.038c-0.286,0-1.001,0.004-1.967,0.038L14.72,7.078z M4.601,10.896l1.46,1.67
				c-1.157,0.179-2.261,0.415-3.207,0.717L4.601,10.896z M14.72,27.599c-7.564,0-11.871-1.143-12.773-1.841
				c0.902-0.696,5.209-1.839,12.773-1.839c7.563,0,11.874,1.143,12.771,1.839C26.594,26.457,22.283,27.599,14.72,27.599z
				 M27.599,23.785c-3.683-1.643-11.725-1.707-12.879-1.707c-1.155,0-9.197,0.064-12.879,1.707v-7.968l0.049-0.12
				c0.717-0.689,5.048-1.898,12.83-1.898c7.784,0,12.11,1.209,12.832,1.898l0.047,0.12V23.785z M7.368,18.814
				c-0.496,0.062-0.854,0.523-0.79,1.029c0.055,0.458,0.451,0.8,0.911,0.8h0.111c0.505-0.063,0.864-0.524,0.8-1.03
				C8.334,19.107,7.874,18.75,7.368,18.814z M22.061,18.814c-0.505-0.065-0.966,0.293-1.03,0.798c-0.063,0.506,0.296,0.967,0.8,1.03
				h0.11c0.462,0,0.856-0.341,0.921-0.8C22.917,19.337,22.558,18.877,22.061,18.814z M3.696,19.467
				c-0.495,0.126-0.789,0.623-0.669,1.12c0.112,0.416,0.478,0.691,0.894,0.691c0.073,0,0.155-0.01,0.229-0.027
				c0.486-0.121,0.791-0.626,0.661-1.112C4.693,19.642,4.195,19.347,3.696,19.467z M11.039,18.491c0.01,0.008,0.01,0.008,0.01,0.008
				c-0.514,0.028-0.9,0.462-0.876,0.968c0.03,0.485,0.434,0.862,0.922,0.862h0.047c0.506-0.028,0.898-0.459,0.873-0.965
				C11.987,18.859,11.556,18.462,11.039,18.491z M14.72,18.4c-0.517,0-0.93,0.415-0.93,0.918c0,0.506,0.413,0.921,0.93,0.921
				c0.506,0,0.92-0.415,0.92-0.921C15.64,18.814,15.226,18.4,14.72,18.4z M25.732,19.467c-0.488-0.12-0.984,0.174-1.113,0.672
				c-0.121,0.486,0.176,0.991,0.671,1.112c0.072,0.018,0.147,0.027,0.22,0.027c0.413,0,0.792-0.275,0.894-0.699
				C26.522,20.09,26.227,19.585,25.732,19.467z M18.381,18.491c0.009,0.008,0.009,0.008,0.009,0.008
				c-0.516-0.037-0.946,0.36-0.974,0.866c-0.028,0.506,0.367,0.937,0.872,0.965h0.056c0.479,0,0.885-0.377,0.912-0.862
				C19.282,18.961,18.897,18.519,18.381,18.491z M22.061,16.053c-0.505-0.063-0.966,0.294-1.03,0.8
				c-0.063,0.507,0.296,0.967,0.8,1.031h0.11c0.462,0,0.856-0.342,0.921-0.801C22.917,16.578,22.558,16.117,22.061,16.053z
				 M18.39,15.731c-0.516-0.019-0.946,0.368-0.974,0.874c-0.028,0.506,0.367,0.938,0.872,0.967h0.047
				c0.488,0,0.894-0.379,0.921-0.865C19.282,16.191,18.897,15.759,18.39,15.731z M25.732,16.707
				c-0.488-0.129-0.995,0.174-1.113,0.671c-0.121,0.49,0.176,0.995,0.671,1.114c0.072,0.018,0.147,0.028,0.22,0.028
				c0.413,0,0.792-0.276,0.894-0.699C26.522,17.332,26.227,16.826,25.732,16.707z M11.047,15.731
				c-0.517,0.029-0.898,0.46-0.874,0.975c0.03,0.486,0.434,0.865,0.922,0.865h0.047c0.516-0.029,0.898-0.46,0.873-0.967
				C11.987,16.099,11.558,15.709,11.047,15.731z M14.72,15.64c-0.009,0-0.009,0-0.009,0c-0.508,0-0.921,0.413-0.91,0.919
				c0,0.507,0.402,0.92,0.919,0.92c0.506,0,0.92-0.413,0.92-0.92C15.64,16.053,15.226,15.64,14.72,15.64z M3.696,16.707
				c-0.495,0.128-0.789,0.625-0.669,1.122c0.112,0.415,0.478,0.691,0.894,0.691c0.073,0,0.146-0.01,0.229-0.028
				c0.486-0.119,0.791-0.624,0.661-1.114C4.693,16.881,4.187,16.586,3.696,16.707z M7.377,16.053c-0.009,0-0.009,0-0.009,0
				c-0.496,0.064-0.854,0.525-0.79,1.03c0.055,0.459,0.451,0.801,0.911,0.801h0.111c0.505-0.064,0.864-0.524,0.8-1.031
				C8.334,16.347,7.874,15.99,7.377,16.053z"/>
		</g>
	</g>
	<g>
		<g>
			<text transform="matrix(1 0 0 1 1.5347 44.6265)"><tspan x="0" y="0" fill="#333333" font-family="'OpenSans-Semibold'" font-size="17.138">100</tspan><tspan x="-0.089" y="10.081" fill="#333333" font-family="'OpenSans-Semibold'" font-size="10.0812">points</tspan></text>
		</g>
	</g>
</g>
</svg>
