<?xml version="1.0" encoding="utf-8"?>
<!-- Generator: Adobe Illustrator 16.0.0, SVG Export Plug-In . SVG Version: 6.00 Build 0)  -->
<!DOCTYPE svg PUBLIC "-//W3C//DTD SVG 1.1//EN" "http://www.w3.org/Graphics/SVG/1.1/DTD/svg11.dtd">
<svg version="1.1" id="Layer_1" xmlns="http://www.w3.org/2000/svg" xmlns:xlink="http://www.w3.org/1999/xlink" x="0px" y="0px"
	 width="299.609px" height="101.491px" viewBox="0 0 299.609 101.491" enable-background="new 0 0 299.609 101.491"
	 xml:space="preserve">
<g>
	<g>
		<polygon fill="#EAD618" points="194.496,0.672 186.986,5.614 194.496,10.162 		"/>
		<g>
			<linearGradient id="SVGID_1_" gradientUnits="userSpaceOnUse" x1="194.4956" y1="14.1426" x2="194.4956" y2="14.1426">
				<stop  offset="0" style="stop-color:#FED900"/>
				<stop  offset="0.2895" style="stop-color:#FED821"/>
				<stop  offset="0.8428" style="stop-color:#FFD652"/>
				<stop  offset="1" style="stop-color:#FFD55E"/>
			</linearGradient>
			<line fill="url(#SVGID_1_)" x1="194.496" y1="0.504" x2="194.496" y2="27.782"/>
			<path fill="#010101" d="M195.002,28.284c-0.279,0-0.507-0.223-0.507-0.502V0.504c0-0.278,0.228-0.504,0.507-0.504
				s0.504,0.226,0.504,0.504v27.278C195.506,28.062,195.282,28.284,195.002,28.284z"/>
		</g>
	</g>
	<g>
		<g>
			<linearGradient id="SVGID_2_" gradientUnits="userSpaceOnUse" x1="144.8169" y1="14.1426" x2="144.8169" y2="14.1426">
				<stop  offset="0" style="stop-color:#FED900"/>
				<stop  offset="0.2895" style="stop-color:#FED821"/>
				<stop  offset="0.8428" style="stop-color:#FFD652"/>
				<stop  offset="1" style="stop-color:#FFD55E"/>
			</linearGradient>
			<line fill="url(#SVGID_2_)" x1="144.817" y1="0.504" x2="144.817" y2="27.782"/>
			<path fill="#010101" d="M145.321,28.284c-0.277,0-0.504-0.223-0.504-0.502V0.504c0-0.278,0.227-0.504,0.504-0.504
				c0.279,0,0.505,0.226,0.505,0.504v27.278C145.826,28.062,145.6,28.284,145.321,28.284z"/>
		</g>
		<polygon fill="#29419A" points="144.817,0.672 137.307,5.614 144.817,10.162 		"/>
	</g>
	<g>
		<g>
			<linearGradient id="SVGID_3_" gradientUnits="userSpaceOnUse" x1="55.3071" y1="14.1426" x2="55.3071" y2="14.1426">
				<stop  offset="0" style="stop-color:#FED900"/>
				<stop  offset="0.2895" style="stop-color:#FED821"/>
				<stop  offset="0.8428" style="stop-color:#FFD652"/>
				<stop  offset="1" style="stop-color:#FFD55E"/>
			</linearGradient>
			<line fill="url(#SVGID_3_)" x1="55.307" y1="0.504" x2="55.307" y2="27.782"/>
			<path fill="#010101" d="M55.815,28.284c-0.28,0-0.508-0.223-0.508-0.502V0.504C55.307,0.226,55.535,0,55.815,0
				c0.277,0,0.504,0.226,0.504,0.504v27.278C56.319,28.062,56.092,28.284,55.815,28.284z"/>
		</g>
		<polygon fill="#148040" points="55.307,0.672 47.797,5.614 55.307,10.162 		"/>
	</g>
	<g>
		<g>
			<linearGradient id="SVGID_4_" gradientUnits="userSpaceOnUse" x1="286.1333" y1="14.1426" x2="286.1333" y2="14.1426">
				<stop  offset="0" style="stop-color:#FED900"/>
				<stop  offset="0.2895" style="stop-color:#FED821"/>
				<stop  offset="0.8428" style="stop-color:#FFD652"/>
				<stop  offset="1" style="stop-color:#FFD55E"/>
			</linearGradient>
			<line fill="url(#SVGID_4_)" x1="286.133" y1="0.504" x2="286.133" y2="27.782"/>
			<path fill="#010101" d="M286.639,28.284c-0.28,0-0.506-0.223-0.506-0.502V0.504c0-0.278,0.226-0.504,0.506-0.504
				c0.277,0,0.504,0.226,0.504,0.504v27.278C287.143,28.062,286.917,28.284,286.639,28.284z"/>
		</g>
		<polygon fill="#ED2028" points="286.133,0.672 278.621,5.614 286.133,10.162 		"/>
	</g>
	<g>
		<g>
			<linearGradient id="SVGID_5_" gradientUnits="userSpaceOnUse" x1="138.2681" y1="103.417" x2="138.2681" y2="81.6858">
				<stop  offset="0" style="stop-color:#808133"/>
				<stop  offset="0.1586" style="stop-color:#6A6B31"/>
				<stop  offset="0.9494" style="stop-color:#020202"/>
			</linearGradient>
			<path fill="url(#SVGID_5_)" d="M223.256,83.323l2.783-0.035l30.65,10.574l19.846,6.695l-13.794,0.007
				c-3.524-1.203-7.147-2.405-11.045-3.588c-3.892-1.181-8.056-2.34-12.673-3.468c-4.609-1.124-9.672-2.218-15.364-3.261
				c-5.685-1.043-11.999-2.037-19.125-2.97c-1.278-0.151-2.442-0.282-3.522-0.392c-1.08-0.112-2.078-0.203-3.037-0.28
				c-0.957-0.079-1.87-0.144-2.779-0.198c-0.906-0.054-1.811-0.099-2.748-0.141c-0.609-0.027-1.213-0.053-1.812-0.073
				c-0.602-0.018-1.195-0.038-1.783-0.05s-1.168-0.021-1.74-0.031c-0.57-0.006-1.137-0.008-1.691-0.008
				c-1.92,0.002-3.73,0.051-5.369,0.143c-1.64,0.097-3.109,0.236-4.351,0.429c-1.247,0.192-2.263,0.437-2.997,0.731
				c-0.736,0.297-1.189,0.646-1.299,1.055c-0.021,0.076-0.02,0.162,0.002,0.258c0.021,0.092,0.062,0.189,0.119,0.293
				c0.058,0.102,0.133,0.204,0.22,0.305c0.091,0.102,0.192,0.199,0.31,0.289c0.551,0.434,1.82,0.988,3.595,1.59
				c1.776,0.604,4.055,1.254,6.627,1.884c2.575,0.628,5.439,1.233,8.383,1.745c2.942,0.51,5.961,0.924,8.836,1.172
				c3.591,0.352,7.285,0.516,11.063,0.617c3.776,0.1,7.632,0.137,11.559,0.232c3.922,0.096,7.917,0.248,11.98,0.58
				c4.062,0.333,8.196,0.848,12.402,1.662c0.575,0.119,1.139,0.242,1.688,0.362c0.547,0.126,1.084,0.247,1.607,0.37
				c0.527,0.124,1.041,0.248,1.549,0.372c0.504,0.125,1.004,0.248,1.494,0.376c-0.266,0-1.732,0.002-3.875,0.002
				c-2.145,0.002-4.968,0.002-7.941,0.006c-2.975,0-6.102,0.004-8.854,0.004c-2.751,0.002-5.122,0.004-6.58,0.004
				c-5.477,0.002-10.166-0.144-14.119-0.364c-3.955-0.222-7.17-0.521-9.713-0.822c-2.541-0.301-4.412-0.607-5.672-0.846
				c-1.262-0.24-1.918-0.412-2.037-0.442l7.146,2.488l-26.153,0.014L118.507,88.33l34.13,12.298l-17.668,0.007l-3.511,0.006
				l-12.317-3.08l-24.85,0.02l4.526,3.074l-23.077,0.014l-7.555-6.137l-19.721,0.021l16.492,6.12l-19.778,0.013L0,83.744
				l51.133-0.102l4.742,3.475l-27.316,0.045l9.348,3.471l25.35-0.035l-8.85-6.965l26.982-0.049l17.582,4.138L87.403,83.57
				l26.498-0.049l54.936,11.787c-1.295-0.44-2.457-0.85-3.514-1.233s-2.014-0.745-2.902-1.081c-0.889-0.335-1.712-0.652-2.5-0.947
				c-0.79-0.297-1.55-0.578-2.31-0.844l-22.009-7.721l16.339-0.029c0.022,0,0.155,0.039,0.373,0.111
				c0.218,0.068,0.526,0.174,0.899,0.301c0.375,0.133,0.817,0.283,1.311,0.455c0.49,0.171,1.027,0.356,1.595,0.557
				c-0.833-0.292-1.263-0.525-1.35-0.715c-0.089-0.189,0.163-0.33,0.702-0.438c0.535-0.109,1.354-0.178,2.395-0.225
				c1.041-0.044,2.303-0.062,3.727-0.066c1.941-0.002,4.096-0.005,6.246-0.01c2.146-0.004,4.289-0.007,6.203-0.012
				c1.913-0.002,3.603-0.006,4.852-0.006c1.244-0.003,2.051-0.004,2.197-0.004l19.889-0.034l1.073-0.003l31.222,6.457
				L223.256,83.323z M90.996,94.813l16.211-0.017l-11.08-2.814c-0.628-0.16-1.295-0.326-2.003-0.508
				c-0.709-0.178-1.458-0.369-2.248-0.571c-0.79-0.202-1.622-0.417-2.499-0.64c-0.874-0.227-1.795-0.467-2.761-0.715
				c-0.966-0.252-1.858-0.484-2.677-0.699c-0.819-0.213-1.562-0.41-2.233-0.586c-0.672-0.18-1.269-0.339-1.795-0.483
				c-0.526-0.144-0.98-0.269-1.365-0.377c0.198,0.101,0.421,0.216,0.663,0.347c0.243,0.129,0.511,0.273,0.804,0.434
				c0.294,0.165,0.612,0.344,0.961,0.537c0.348,0.199,0.729,0.41,1.139,0.642c0.408,0.233,0.914,0.526,1.508,0.872
				c0.593,0.352,1.274,0.758,2.029,1.217c0.757,0.459,1.585,0.97,2.481,1.531C89.026,93.547,89.985,94.158,90.996,94.813"/>
		</g>
		<g>
			<g enable-background="new    ">
				<g>
					<polygon fill="#806E2C" points="265.231,54.166 256.69,57.28 268.127,31.099 277.084,26.943 					"/>
				</g>
				<g enable-background="new    ">
					<path fill="#84732D" d="M263.606,100.983l-7.816-2.59c-0.059-4.893-0.223-6.553-0.705-11.35
						c-0.482-4.792-1.283-9.515-2.618-14.105c-1.335-4.587-3.202-9.046-5.819-13.323c-2.616-4.274-5.987-8.375-10.322-12.235
						l7.718-3.562c4.511,4.026,8.015,8.288,10.739,12.738c2.723,4.451,4.666,9.092,6.059,13.867
						c1.391,4.776,2.227,9.689,2.732,14.674c0.51,4.996,0.683,10.068,0.748,15.16"/>
				</g>
				<g enable-background="new    ">
					<defs>
						<path id="SVGID_6_" enable-background="new    " d="M207.977,45.495l6.599-3.656c1.035-0.573,2.106-1.068,3.204-1.484
							c1.098-0.415,2.22-0.757,3.359-1.026c1.141-0.266,2.295-0.459,3.459-0.585c1.16-0.124,2.328-0.178,3.492-0.168
							c0.562,0.005,1.127,0.027,1.688,0.063c0.559,0.039,1.117,0.091,1.673,0.154c0.557,0.07,1.108,0.15,1.655,0.251
							c0.549,0.091,1.092,0.202,1.629,0.327c0.828,0.192,1.607,0.399,2.37,0.645s1.501,0.532,2.247,0.873
							c0.741,0.34,1.488,0.74,2.264,1.225c0.773,0.48,1.575,1.042,2.427,1.705l-7.718,3.562c-0.822-0.64-1.592-1.177-2.336-1.64
							c-0.746-0.462-1.464-0.85-2.178-1.178c-0.717-0.327-1.429-0.599-2.16-0.836c-0.732-0.234-1.484-0.434-2.282-0.617
							c-0.517-0.119-1.037-0.226-1.565-0.318c-0.525-0.094-1.06-0.172-1.591-0.235c-0.534-0.063-1.071-0.115-1.61-0.147
							c-0.541-0.034-1.082-0.056-1.625-0.062c-1.119-0.007-2.244,0.045-3.36,0.166c-1.118,0.119-2.229,0.309-3.327,0.565
							c-1.096,0.257-2.178,0.586-3.232,0.989C210,44.467,208.971,44.943,207.977,45.495z"/>
					</defs>
					<clipPath id="SVGID_7_">
						<use xlink:href="#SVGID_6_"  overflow="visible"/>
					</clipPath>
					<g clip-path="url(#SVGID_7_)" enable-background="new    ">
						<path fill="#84732D" d="M244.042,43.818l-7.718,3.562c-0.822-0.64-1.592-1.177-2.336-1.64
							c-0.746-0.462-1.464-0.85-2.178-1.178c-0.717-0.327-1.429-0.599-2.16-0.836c-0.732-0.234-1.484-0.434-2.282-0.617
							c-0.517-0.119-1.037-0.226-1.565-0.318c-0.525-0.094-1.06-0.172-1.591-0.235c-0.534-0.063-1.071-0.115-1.61-0.147
							c-0.541-0.034-1.082-0.056-1.625-0.062c-1.119-0.007-2.244,0.045-3.36,0.166c-1.118,0.119-2.229,0.309-3.327,0.565
							c-1.096,0.257-2.178,0.586-3.232,0.989c-1.057,0.4-2.086,0.876-3.08,1.427l6.599-3.656c1.035-0.573,2.106-1.068,3.204-1.484
							c1.098-0.415,2.22-0.757,3.359-1.026c1.141-0.266,2.295-0.459,3.459-0.585c1.16-0.124,2.328-0.178,3.492-0.168
							c0.562,0.005,1.127,0.027,1.688,0.063c0.559,0.039,1.117,0.091,1.673,0.154c0.557,0.07,1.108,0.15,1.655,0.251
							c0.549,0.091,1.092,0.202,1.629,0.327c0.828,0.192,1.607,0.399,2.37,0.645s1.501,0.532,2.247,0.873
							c0.741,0.34,1.488,0.74,2.264,1.225C242.389,42.594,243.191,43.156,244.042,43.818"/>
					</g>
				</g>
				<g enable-background="new    ">
					<defs>
						<path id="SVGID_8_" enable-background="new    " d="M197.838,32.478c0.091-0.061,0.209-0.141,0.299-0.2
							c0.912-0.619,1.824-1.237,2.733-1.853c1.052-0.713,2.106-1.426,3.157-2.141c-0.336,0.228-0.637,0.49-0.897,0.791
							c-0.262,0.297-0.479,0.632-0.657,1.008s-0.312,0.792-0.4,1.252c-0.086,0.459-0.129,0.965-0.122,1.515l-6.114,4.018
							c-0.005-0.535,0.037-1.02,0.121-1.461c0.084-0.439,0.213-0.84,0.385-1.2c0.17-0.362,0.383-0.685,0.632-0.971
							C197.223,32.95,197.514,32.7,197.838,32.478z"/>
					</defs>
					<clipPath id="SVGID_9_">
						<use xlink:href="#SVGID_8_"  overflow="visible"/>
					</clipPath>
					<g clip-path="url(#SVGID_9_)" enable-background="new    ">
						<path fill="#84732D" d="M201.951,32.851l-6.114,4.018c-0.005-0.535,0.037-1.02,0.121-1.461c0.084-0.439,0.213-0.84,0.385-1.2
							c0.17-0.362,0.383-0.685,0.632-0.971c0.249-0.287,0.54-0.537,0.864-0.759l6.189-4.193c-0.336,0.228-0.637,0.49-0.897,0.791
							c-0.262,0.297-0.479,0.632-0.657,1.008s-0.312,0.792-0.4,1.252C201.987,31.795,201.944,32.301,201.951,32.851"/>
					</g>
				</g>
				<g enable-background="new    ">
					<path fill="#84732D" d="M225.92,100.983l1.426-0.422c0,0-9.762-0.19-13.088-1.14c-3.33-0.955-5.705-2.234-7.395-3.532
						c-1.691-1.3-2.697-2.618-3.287-3.641c-0.59-1.027-0.764-1.761-0.795-1.894l-6.372-0.314c0.03,0.127,0.198,0.834,0.763,1.817
						c0.566,0.985,1.531,2.251,3.157,3.496c1.625,1.248,3.909,2.478,7.11,3.39c3.197,0.916,6.662,2.016,11.123,2.188
						C223.812,101.231,225.92,100.983,225.92,100.983"/>
				</g>
				<g>
					<polygon fill="#806E2C" points="184.744,60.584 179.971,63.027 179.665,29.535 184.397,25.796 					"/>
				</g>
				<g enable-background="new    ">
					<defs>
						<path id="SVGID_10_" enable-background="new    " d="M185.16,77.567l-5.493,2.272c-0.058-1.824-0.064-3.523-0.041-5.118
							c0.018-1.589,0.067-3.077,0.125-4.473c0.055-1.396,0.115-2.699,0.158-3.936c0.045-1.232,0.074-2.392,0.062-3.497l5.496-2.972
							c0.014,1.153-0.017,2.363-0.061,3.644c-0.047,1.286-0.108,2.646-0.166,4.097c-0.057,1.452-0.107,2.999-0.127,4.655
							C185.091,73.898,185.1,75.668,185.16,77.567z"/>
					</defs>
					<clipPath id="SVGID_11_">
						<use xlink:href="#SVGID_10_"  overflow="visible"/>
					</clipPath>
					<g clip-path="url(#SVGID_11_)" enable-background="new    ">
						<path fill="#84732D" d="M185.16,77.567l-5.493,2.272c-0.058-1.824-0.064-3.523-0.041-5.118
							c0.018-1.589,0.067-3.077,0.125-4.473c0.055-1.396,0.115-2.699,0.158-3.936c0.045-1.232,0.074-2.392,0.062-3.497l5.496-2.972
							c0.014,1.153-0.017,2.363-0.061,3.644c-0.047,1.286-0.108,2.646-0.166,4.097c-0.057,1.452-0.107,2.999-0.127,4.655
							C185.091,73.898,185.1,75.668,185.16,77.567"/>
					</g>
				</g>
				<g>
					<polygon fill="#806E2C" points="176.471,101.231 170.087,99.694 149.832,50.492 154.104,46.999 					"/>
				</g>
				<g>
					<polygon fill="#806E2C" points="135.36,43.348 131.798,46.974 131.719,29.534 135.27,25.194 					"/>
				</g>
				<g enable-background="new    ">
					<defs>
						<path id="SVGID_12_" enable-background="new    " d="M121.325,62.549l-2.986,2.898c-0.186-0.669-0.384-1.379-0.59-2.139
							c-0.206-0.762-0.423-1.568-0.65-2.42c-0.228-0.857-0.463-1.76-0.709-2.716c-0.248-0.956-0.504-1.961-0.771-3.024
							c-0.269-1.06-0.513-2.046-0.735-2.951c-0.224-0.91-0.42-1.738-0.597-2.495c-0.173-0.752-0.326-1.433-0.455-2.04
							c-0.128-0.605-0.234-1.137-0.318-1.6l2.783-3.704c0.086,0.478,0.197,1.035,0.332,1.667c0.135,0.628,0.291,1.336,0.475,2.125
							c0.182,0.786,0.389,1.651,0.621,2.595c0.229,0.946,0.487,1.967,0.768,3.074c0.277,1.105,0.543,2.157,0.801,3.151
							c0.258,0.996,0.504,1.939,0.74,2.826c0.236,0.893,0.463,1.732,0.678,2.521C120.928,61.109,121.131,61.854,121.325,62.549z"/>
					</defs>
					<clipPath id="SVGID_13_">
						<use xlink:href="#SVGID_12_"  overflow="visible"/>
					</clipPath>
					<g clip-path="url(#SVGID_13_)" enable-background="new    ">
						<path fill="#84732D" d="M121.325,62.549l-2.986,2.898c-0.186-0.669-0.384-1.379-0.59-2.139
							c-0.206-0.762-0.423-1.568-0.65-2.42c-0.228-0.857-0.463-1.76-0.709-2.716c-0.248-0.956-0.504-1.961-0.771-3.024
							c-0.269-1.06-0.513-2.046-0.735-2.951c-0.224-0.91-0.42-1.738-0.597-2.495c-0.173-0.752-0.326-1.433-0.455-2.04
							c-0.128-0.605-0.234-1.137-0.318-1.6l2.783-3.704c0.086,0.478,0.197,1.035,0.332,1.667c0.135,0.628,0.291,1.336,0.475,2.125
							c0.182,0.786,0.389,1.651,0.621,2.595c0.229,0.946,0.487,1.967,0.768,3.074c0.277,1.105,0.543,2.157,0.801,3.151
							c0.258,0.996,0.504,1.939,0.74,2.826c0.236,0.893,0.463,1.732,0.678,2.521C120.928,61.109,121.131,61.854,121.325,62.549"/>
					</g>
				</g>
				<g>
					<polygon fill="#806E2C" points="124.67,74.938 121.544,77.341 118.338,65.447 121.325,62.549 					"/>
				</g>
				<g>
					<polygon fill="#806E2C" points="132.557,101.283 128.248,99.643 125.701,88.986 129.002,87.07 					"/>
				</g>
				<g>
					<polygon fill="#806E2C" points="92.014,56.107 90.196,59.281 100.087,29.885 102.312,25.5 					"/>
				</g>
				<g>
					<polygon fill="#806E2C" points="129.002,87.07 125.701,88.986 101.725,88.986 104.032,87.062 					"/>
				</g>
				<g>
					<polygon fill="#806E2C" points="94.696,41.428 92.793,45.214 66.141,44.981 66.928,41.167 					"/>
				</g>
				<g>
					<polygon fill="#806E2C" points="86.178,73.479 84.587,75.96 65.51,75.914 66.295,73.424 					"/>
				</g>
				<g>
					<g>
						<linearGradient id="SVGID_14_" gradientUnits="userSpaceOnUse" x1="33.77" y1="98.0742" x2="400.6635" y2="-3.9613">
							<stop  offset="0" style="stop-color:#FED900"/>
							<stop  offset="0.2754" style="stop-color:#FCE220"/>
							<stop  offset="0.5086" style="stop-color:#FAEE39"/>
							<stop  offset="1" style="stop-color:#FFD55E"/>
						</linearGradient>
						<path fill="url(#SVGID_14_)" d="M277.555,27.672l20.879,0.26l-22.556,44.096l0.563,28.202l-12.121,0.028
							c-0.065-5.092-0.238-10.164-0.748-15.16c-0.506-4.984-1.342-9.897-2.732-14.674c-1.393-4.775-3.336-9.416-6.059-13.867
							c-2.725-4.45-6.229-8.712-10.739-12.738c-0.852-0.662-1.653-1.225-2.427-1.705c-0.775-0.485-1.522-0.885-2.264-1.225
							c-0.746-0.341-1.484-0.627-2.247-0.873s-1.542-0.453-2.37-0.645c-0.537-0.125-1.08-0.236-1.629-0.327
							c-0.547-0.101-1.099-0.182-1.655-0.251c-0.556-0.063-1.114-0.116-1.673-0.154c-0.561-0.036-1.125-0.058-1.688-0.063
							c-1.955-0.018-3.92,0.147-5.848,0.518c-1.93,0.372-3.824,0.947-5.632,1.739c-1.81,0.793-3.531,1.805-5.12,3.051
							c-1.591,1.242-3.046,2.719-4.318,4.447c-0.241,0.324-0.49,0.7-0.734,1.095c-0.245,0.398-0.49,0.823-0.721,1.257
							c-0.232,0.431-0.451,0.871-0.646,1.298c-0.195,0.429-0.37,0.843-0.508,1.227c-0.68,1.858-0.977,4.233-0.904,6.823
							c0.076,2.588,0.52,5.391,1.323,8.096c0.803,2.701,1.966,5.311,3.473,7.51c1.507,2.2,3.36,3.987,5.541,5.062
							c2.61,1.513,5.848,2.233,9.353,2.681c3.499,0.448,7.262,0.624,10.931,1.044c3.663,0.42,7.233,1.086,10.353,2.512
							c3.119,1.427,5.791,3.611,7.667,7.076c0.232,0.51,0.445,1.023,0.647,1.537c0.2,0.519,0.384,1.039,0.557,1.561
							c0.17,0.525,0.332,1.053,0.482,1.58c0.146,0.528,0.287,1.059,0.418,1.592c-0.267,0.002-1.737,0.004-3.883,0.01
							c-2.149,0.005-4.976,0.012-7.954,0.021c-2.981,0.006-6.116,0.012-8.868,0.02c-2.758,0.004-5.132,0.009-6.592,0.014
							c-5.488,0.013-9.763-0.611-13.088-1.561c-3.33-0.953-5.705-2.232-7.395-3.533c-1.691-1.297-2.697-2.617-3.287-3.639
							c-0.591-1.025-0.764-1.762-0.795-1.896l0.129,10.686l-26.199,0.061l-22.367-53.464l-0.069,53.519l-17.698,0.04l-3.516,0.007
							l-3.818-13.494l-24.971-0.009l-3.898,13.579l-23.115,0.054l9.16-27.216l-19.883-0.055l-0.074,27.297l-19.807,0.043
							l0.371-75.953l52.188,0.646l-4.82,15.278l-27.768-0.262l-0.041,15.467l25.67,0.168L102.312,25.5l27.526,0.341l6.225,18.231
							l-0.09-18.156l27.024,0.336l22.162,51.315c-0.06-1.899-0.068-3.669-0.046-5.327c0.02-1.656,0.07-3.203,0.127-4.655
							c0.058-1.451,0.119-2.811,0.166-4.097c0.044-1.28,0.074-2.49,0.061-3.644l-0.34-33.318l16.655,0.207
							c0.022,0.002,0.044,0.171,0.062,0.479c0.018,0.307,0.031,0.753,0.041,1.306c0.015,0.553,0.023,1.211,0.037,1.946
							c0.01,0.731,0.02,1.539,0.028,2.388c-0.015-1.245,0.22-2.25,0.668-3.054c0.452-0.798,1.118-1.4,1.968-1.842
							c0.85-0.443,1.883-0.726,3.066-0.894c1.184-0.17,2.516-0.221,3.968-0.208c1.981,0.027,4.177,0.055,6.368,0.083
							c2.187,0.024,4.369,0.053,6.32,0.076c1.951,0.024,3.674,0.046,4.943,0.06c1.27,0.018,2.093,0.026,2.24,0.027l20.269,0.252
							l1.093,0.014l12.85,27.528L277.555,27.672z M108.333,74.893l16.337,0.045l-3.346-12.389c-0.193-0.695-0.396-1.439-0.613-2.23
							c-0.214-0.789-0.441-1.629-0.678-2.521c-0.236-0.887-0.482-1.83-0.74-2.826c-0.258-0.994-0.523-2.046-0.801-3.151
							c-0.28-1.106-0.538-2.128-0.768-3.074c-0.232-0.944-0.439-1.81-0.621-2.595c-0.184-0.788-0.34-1.496-0.475-2.125
							c-0.135-0.633-0.246-1.19-0.332-1.667c-0.078,0.442-0.174,0.946-0.289,1.517c-0.117,0.567-0.251,1.206-0.404,1.917
							c-0.153,0.708-0.326,1.49-0.518,2.35c-0.191,0.858-0.4,1.796-0.632,2.811c-0.229,1.017-0.526,2.296-0.896,3.829
							c-0.369,1.531-0.807,3.314-1.316,5.329c-0.51,2.017-1.09,4.267-1.74,6.735S109.127,72.004,108.333,74.893"/>
						<path fill="#24421D" d="M45.688,101.491l0.377-77.413l53.89,0.667l-5.272,16.718l-27.576-0.259l-0.035,14.019l24.425,0.157
							l10.298-30.61l28.566,0.354l4.957,14.522l-0.071-14.463l28.231,0.348l20.902,48.399c-0.001-0.56,0.003-1.126,0.01-1.699
							c0.021-1.664,0.072-3.216,0.129-4.675l0.164-4.094c0.046-1.269,0.074-2.469,0.062-3.607l-0.347-34.06l17.396,0.212
							c0.714,0.084,0.749,0.686,0.774,1.164c0.018,0.313,0.031,0.771,0.043,1.331c0,0.023,0,0.042,0.002,0.068
							c0.441-0.498,0.992-0.92,1.639-1.257c0.891-0.464,1.97-0.782,3.301-0.971c1.016-0.143,2.178-0.214,3.555-0.214l20.396,0.249
							l21.817,0.269l12.361,26.488l11.404-26.19l22.524,0.281l-23.005,44.97l0.575,28.757l-13.573,0.032l-0.008-0.716
							c-0.08-6.157-0.309-10.812-0.744-15.096c-0.551-5.412-1.436-10.171-2.708-14.548c-1.468-5.031-3.425-9.511-5.982-13.69
							c-2.79-4.555-6.356-8.787-10.603-12.574c-0.791-0.614-1.565-1.157-2.329-1.633c-0.741-0.459-1.456-0.847-2.184-1.183
							c-0.688-0.317-1.399-0.591-2.165-0.841c-0.695-0.222-1.451-0.427-2.311-0.625c-0.527-0.123-1.055-0.232-1.59-0.325
							c-0.537-0.094-1.076-0.177-1.617-0.244c-0.543-0.063-1.088-0.11-1.637-0.149c-0.547-0.035-1.096-0.055-1.647-0.06
							l-0.283-0.003c-1.844,0-3.669,0.173-5.42,0.507c-1.916,0.369-3.758,0.937-5.476,1.693c-1.799,0.789-3.469,1.783-4.965,2.954
							c-1.58,1.236-2.987,2.688-4.184,4.311c-0.229,0.31-0.469,0.666-0.699,1.044c-0.238,0.386-0.476,0.798-0.701,1.219
							c-0.225,0.418-0.436,0.846-0.625,1.262c-0.187,0.408-0.352,0.803-0.486,1.171c-0.635,1.738-0.934,4.003-0.859,6.554
							c0.074,2.582,0.521,5.317,1.291,7.908c0.818,2.75,1.985,5.279,3.379,7.311c1.531,2.234,3.303,3.855,5.264,4.82
							c2.228,1.292,5.027,2.089,9.121,2.613c1.861,0.24,3.763,0.396,5.773,0.562c1.715,0.144,3.443,0.285,5.15,0.482
							c3.07,0.351,7.047,0.962,10.57,2.571c3.579,1.632,6.196,4.052,8.002,7.39c0.262,0.566,0.48,1.092,0.687,1.619
							c0.204,0.532,0.393,1.062,0.569,1.599c0.175,0.53,0.338,1.067,0.49,1.608c0.149,0.536,0.294,1.074,0.426,1.615l0.22,0.891
							l-28.384,0.068c-5.02,0-9.435-0.537-13.123-1.59c-3.05-0.871-5.62-2.103-7.637-3.654c-1.16-0.89-2.127-1.869-2.881-2.931
							l0.102,8.229l-27.41,0.067l-21.17-50.598l-0.065,50.644l-22.483,0.055l-3.819-13.495l-23.879-0.009l-3.897,13.575
							l-24.666,0.058L85.17,74.2l-18.154-0.052l-0.072,27.294L45.688,101.491z M47.506,25.544l-0.363,74.496L65.5,99.998
							l0.075-27.301l21.607,0.062l-9.154,27.209l21.559-0.049l3.9-13.579l26.062,0.007l3.818,13.493l19.945-0.048l0.072-56.386
							l23.568,56.332l24.984-0.058l-0.2-16.609c0,0,1.13,6.007,2.227,8.182c0.646,1.28,1.76,2.395,3.101,3.424
							c1.873,1.44,4.279,2.59,7.152,3.411c3.56,1.019,7.84,1.536,12.725,1.536l26.53-0.063c-0.062-0.227-0.122-0.451-0.186-0.676
							c-0.146-0.518-0.303-1.035-0.472-1.548c-0.168-0.511-0.349-1.021-0.545-1.526c-0.194-0.505-0.403-1.001-0.631-1.501
							c-1.63-3.007-4.025-5.217-7.31-6.716c-3.337-1.525-7.17-2.111-10.132-2.449c-1.695-0.193-3.406-0.336-5.104-0.476
							c-1.939-0.16-3.944-0.327-5.837-0.569c-4.296-0.551-7.264-1.405-9.625-2.775c-2.141-1.051-4.1-2.833-5.773-5.279
							c-1.476-2.151-2.71-4.819-3.571-7.715c-0.806-2.711-1.272-5.573-1.353-8.277c-0.076-2.736,0.252-5.189,0.95-7.093
							c0.144-0.397,0.325-0.832,0.526-1.278c0.204-0.441,0.43-0.896,0.669-1.341c0.237-0.446,0.489-0.881,0.741-1.292
							c0.255-0.42,0.518-0.806,0.768-1.146c1.277-1.73,2.775-3.274,4.456-4.593c1.593-1.247,3.365-2.301,5.276-3.142
							c1.816-0.797,3.764-1.397,5.784-1.786c1.843-0.351,3.757-0.533,5.693-0.533l0.298,0.005c0.576,0.004,1.154,0.026,1.729,0.062
							c0.574,0.037,1.145,0.09,1.715,0.159c0.568,0.066,1.133,0.154,1.693,0.252c0.561,0.097,1.115,0.212,1.666,0.34
							c0.9,0.208,1.694,0.422,2.428,0.661c0.823,0.265,1.583,0.561,2.326,0.903c0.783,0.361,1.548,0.774,2.343,1.268
							c0.81,0.502,1.622,1.073,2.491,1.75c4.391,3.911,8.048,8.253,10.911,12.931c2.626,4.291,4.634,8.885,6.137,14.038
							c1.3,4.465,2.2,9.305,2.759,14.808c0.424,4.16,0.653,8.658,0.741,14.506l10.667-0.022l-0.551-27.647l22.107-43.221
							l-19.23-0.238l-12.303,28.254l-13.334-28.571l-41.285-0.51c-1.308,0-2.404,0.067-3.351,0.201
							c-1.167,0.167-2.094,0.436-2.835,0.821c-0.756,0.395-1.303,0.902-1.67,1.555c-0.398,0.712-0.589,1.587-0.574,2.671v0.003l0,0
							l-1.449,0.034l0,0v-0.012l-0.029-2.378c-0.012-0.729-0.021-1.386-0.036-1.935c-0.007-0.438-0.019-0.806-0.031-1.091
							L185.86,27.26l0.332,32.58c0.01,1.161-0.017,2.381-0.062,3.672l-0.166,4.1c-0.056,1.449-0.105,2.988-0.128,4.641
							c-0.022,1.801-0.009,3.533,0.05,5.293l0.121,3.801L162.52,26.971L136.7,26.65l0.107,21.844l-7.488-21.934l-26.489-0.332
							L92.534,56.833l-26.916-0.171l0.046-16.919l27.961,0.263l4.366-13.837L47.506,25.544z M125.615,75.662l-18.229-0.049
							l0.25-0.912c0.794-2.888,1.516-5.573,2.168-8.041c0.648-2.465,1.229-4.714,1.738-6.727s0.945-3.793,1.314-5.32
							c0.369-1.529,0.666-2.808,0.894-3.818l1.147-5.159c0.152-0.705,0.285-1.337,0.401-1.908c0.113-0.562,0.211-1.057,0.286-1.492
							l0.702-4.029l0.725,4.025c0.084,0.468,0.194,1.018,0.328,1.643c0.131,0.625,0.289,1.327,0.471,2.111
							c0.182,0.784,0.39,1.646,0.618,2.588c0.232,0.941,0.488,1.965,0.766,3.071c0.278,1.103,0.545,2.151,0.801,3.144
							c0.258,0.995,0.503,1.937,0.739,2.824c0.236,0.891,0.463,1.728,0.677,2.518L125.615,75.662z M109.282,74.172l14.443,0.039
							l-3.711-13.699c-0.217-0.793-0.443-1.636-0.68-2.525c-0.236-0.894-0.484-1.836-0.741-2.835
							c-0.257-0.997-0.526-2.046-0.804-3.153c-0.279-1.105-0.537-2.135-0.767-3.08c-0.233-0.95-0.442-1.817-0.623-2.604
							c-0.029-0.127-0.059-0.252-0.085-0.372h-0.001l-1.151,5.171c-0.229,1.017-0.528,2.302-0.898,3.837
							c-0.368,1.535-0.81,3.319-1.319,5.334c-0.51,2.021-1.09,4.275-1.743,6.744C110.618,69.238,109.979,71.621,109.282,74.172z"/>
					</g>
				</g>
				<g>
					<circle fill="#FFFFFF" cx="226.069" cy="62.5" r="16.451"/>
					<path fill="#24421D" d="M226.067,79.674c-9.469,0-17.174-7.703-17.174-17.174c0-9.473,7.705-17.176,17.174-17.176
						c9.473,0,17.177,7.703,17.177,17.176C243.244,71.971,235.54,79.674,226.067,79.674z M226.067,46.771
						c-8.672,0-15.729,7.058-15.729,15.729s7.057,15.729,15.729,15.729c8.674,0,15.729-7.057,15.729-15.729
						S234.741,46.771,226.067,46.771z"/>
				</g>
				<g>
					<g>
						<path fill="#E32826" d="M223.647,70.385h-3.158v-8.649l0.031-1.421l0.049-1.555c-0.522,0.524-0.887,0.869-1.092,1.032
							l-1.717,1.38l-1.522-1.898l4.813-3.834h2.596V70.385z"/>
						<path fill="#E32826" d="M229.588,55.246c1.432,0,2.584,0.322,3.461,0.975c0.875,0.651,1.312,1.529,1.312,2.633
							c0,0.762-0.213,1.442-0.635,2.039c-0.422,0.596-1.104,1.129-2.043,1.596c1.117,0.604,1.92,1.229,2.404,1.877
							c0.488,0.652,0.732,1.367,0.732,2.144c0,1.226-0.479,2.213-1.441,2.958c-0.96,0.746-2.225,1.119-3.791,1.119
							c-1.635,0-2.92-0.348-3.854-1.043s-1.4-1.681-1.4-2.954c0-0.851,0.227-1.608,0.682-2.271c0.451-0.656,1.178-1.24,2.181-1.746
							c-0.852-0.539-1.466-1.115-1.839-1.727c-0.376-0.611-0.562-1.284-0.562-2.014c0-1.07,0.442-1.936,1.328-2.597
							C227.008,55.572,228.165,55.246,229.588,55.246z M227.258,66.404c0,0.59,0.204,1.043,0.612,1.37
							c0.409,0.328,0.968,0.493,1.677,0.493c0.784,0,1.369-0.172,1.758-0.507c0.388-0.341,0.582-0.784,0.582-1.335
							c0-0.457-0.191-0.882-0.576-1.284c-0.384-0.397-1.012-0.823-1.877-1.271C227.983,64.539,227.258,65.382,227.258,66.404z
							 M229.567,57.557c-0.538,0-0.971,0.134-1.303,0.412c-0.33,0.275-0.496,0.645-0.496,1.106c0,0.411,0.133,0.778,0.394,1.101
							c0.263,0.324,0.737,0.656,1.427,0.996c0.668-0.312,1.135-0.635,1.4-0.96c0.264-0.327,0.398-0.703,0.398-1.137
							c0-0.469-0.17-0.84-0.511-1.11C230.535,57.69,230.1,57.557,229.567,57.557z"/>
					</g>
				</g>
			</g>
		</g>
	</g>
</g>
</svg>
