<?xml version="1.0" encoding="utf-8"?>
<!-- Generator: Adobe Illustrator 16.0.0, SVG Export Plug-In . SVG Version: 6.00 Build 0)  -->
<!DOCTYPE svg PUBLIC "-//W3C//DTD SVG 1.1//EN" "http://www.w3.org/Graphics/SVG/1.1/DTD/svg11.dtd">
<svg version="1.1" id="Layer_1" xmlns="http://www.w3.org/2000/svg" xmlns:xlink="http://www.w3.org/1999/xlink" x="0px" y="0px"
	 width="50px" height="50px" viewBox="0 0 50 50" enable-background="new 0 0 50 50" xml:space="preserve">
<path fill="#FFFFFF" d="M25,0C11.193,0,0,11.193,0,25c0,13.807,11.193,25,25,25c13.808,0,25-11.193,25-25C50,11.193,38.808,0,25,0z
	 M25,38c-1.104,0-2-0.894-2-2c0-1.102,0.896-1.999,2-1.999c1.105,0,2,0.897,2,1.999C27,37.106,26.105,38,25,38z M28.974,24.319
	c-2.678,2.676-2.609,2.615-2.74,5.681H24c0.135-3.382,0.881-4.542,3.539-7.011c1.295-1.224,2.275-2.695,2.275-4.516
	c0-2.8-2.275-4.725-5.003-4.725c-3.816,0-5.705,2.646-5.637,6.251h-2.206c0.038-4.969,2.872-8.106,7.947-8.106
	c3.883,0,7.104,2.416,7.104,6.475C32.019,20.958,30.759,22.64,28.974,24.319z"/>
</svg>
