<?xml version="1.0" encoding="utf-8"?>
<!-- Generator: Adobe Illustrator 16.0.0, SVG Export Plug-In . SVG Version: 6.00 Build 0)  -->
<!DOCTYPE svg PUBLIC "-//W3C//DTD SVG 1.1//EN" "http://www.w3.org/Graphics/SVG/1.1/DTD/svg11.dtd">
<svg version="1.1" id="Layer_1" xmlns="http://www.w3.org/2000/svg" xmlns:xlink="http://www.w3.org/1999/xlink" x="0px" y="0px"
	 width="47.719px" height="45.828px" viewBox="0 0 47.719 45.828" enable-background="new 0 0 47.719 45.828" xml:space="preserve">
<g>
	<g>
		<text transform="matrix(1 0 0 1 -117.626 39.9072)" fill="#2C649D" font-family="'OpenSans-Bold'" font-size="34">9999</text>
		<g>
			<g>
				<path fill-rule="evenodd" clip-rule="evenodd" fill="#FFFFFF" d="M-144.117,11.611h6.638V9.125h-6.638V11.611z M-137.531,12.443
					h-6.586c0,0-10.834,10.68-10.834,21.156c0,11.098,11.354,11.979,11.354,11.979s3.386,0.561,5.495,0
					c0,0,11.513-1.354,11.513-11.926C-126.59,23.071-137.531,12.443-137.531,12.443z M-137.043,34.926
					c-0.266,0.545-0.627,0.996-1.084,1.354c-0.455,0.363-0.99,0.633-1.604,0.816c-0.077,0.023-0.162,0.033-0.24,0.053v1.84h-1.656
					v-1.623c-0.021,0-0.04,0.004-0.061,0.004c-0.473,0-0.91-0.041-1.314-0.111c-0.402-0.078-0.759-0.172-1.068-0.279
					c-0.309-0.105-0.568-0.221-0.774-0.336c-0.208-0.119-0.356-0.225-0.448-0.316c-0.092-0.09-0.156-0.223-0.195-0.395
					c-0.037-0.174-0.057-0.42-0.057-0.744c0-0.213,0.004-0.402,0.02-0.549c0.017-0.15,0.037-0.27,0.07-0.357
					c0.029-0.094,0.073-0.16,0.125-0.201c0.053-0.035,0.114-0.057,0.186-0.057c0.097,0,0.236,0.057,0.414,0.174
					c0.182,0.119,0.41,0.246,0.691,0.389c0.279,0.139,0.615,0.264,1.008,0.381c0.389,0.119,0.84,0.176,1.352,0.176
					c0.34,0,0.639-0.043,0.906-0.123c0.267-0.08,0.494-0.195,0.68-0.342c0.186-0.148,0.33-0.33,0.43-0.549
					c0.098-0.219,0.146-0.463,0.146-0.732c0-0.307-0.086-0.572-0.252-0.795c-0.168-0.221-0.391-0.414-0.66-0.588
					c-0.27-0.172-0.578-0.334-0.922-0.482c-0.344-0.154-0.699-0.312-1.062-0.484c-0.368-0.164-0.721-0.355-1.064-0.572
					c-0.348-0.213-0.653-0.469-0.922-0.766c-0.27-0.301-0.49-0.654-0.66-1.061c-0.167-0.408-0.252-0.898-0.252-1.465
					c0-0.654,0.123-1.23,0.363-1.723c0.24-0.496,0.57-0.906,0.979-1.234c0.412-0.323,0.896-0.567,1.455-0.731
					c0.287-0.083,0.584-0.143,0.889-0.183v-1.747h1.656v1.747c0.067,0.009,0.134,0.005,0.201,0.016
					c0.324,0.051,0.625,0.111,0.906,0.199c0.281,0.081,0.531,0.176,0.748,0.282c0.217,0.102,0.359,0.192,0.432,0.26
					c0.07,0.07,0.117,0.13,0.143,0.178c0.023,0.053,0.044,0.118,0.062,0.199c0.015,0.078,0.03,0.183,0.037,0.305
					c0.006,0.121,0.01,0.275,0.01,0.458c0,0.203-0.006,0.378-0.016,0.521c-0.011,0.137-0.029,0.26-0.051,0.348
					c-0.025,0.094-0.061,0.156-0.109,0.199c-0.045,0.041-0.106,0.066-0.183,0.066c-0.077,0-0.2-0.053-0.368-0.146
					c-0.168-0.1-0.377-0.203-0.623-0.324c-0.246-0.113-0.529-0.215-0.852-0.311c-0.324-0.098-0.679-0.143-1.062-0.143
					c-0.307,0-0.568,0.035-0.793,0.111c-0.225,0.074-0.412,0.174-0.564,0.299c-0.15,0.133-0.264,0.293-0.336,0.471
					c-0.075,0.182-0.111,0.375-0.111,0.578c0,0.301,0.084,0.566,0.248,0.789c0.166,0.217,0.385,0.416,0.664,0.588
					c0.278,0.172,0.591,0.328,0.945,0.486c0.348,0.15,0.708,0.305,1.073,0.475c0.365,0.172,0.725,0.361,1.076,0.578
					c0.35,0.213,0.664,0.469,0.938,0.768s0.494,0.648,0.664,1.051c0.166,0.404,0.252,0.881,0.252,1.428
					C-136.641,33.758-136.775,34.383-137.043,34.926z M-137.584,8.298L-134.215,0c0,0-2.125,1.764-3.369,1.764
					s-3.215-1.714-3.215-1.714s-2.125,1.714-3.372,1.714c-1.242,0-3.265-1.663-3.265-1.663l3.422,8.196H-137.584z"/>
			</g>
		</g>
	</g>
	<g>
		<text transform="matrix(1 0 0 1 55.6553 39.9102)" fill="#2C649D" font-family="'OpenSans-Bold'" font-size="34">12</text>
		<path fill="#FFFFFF" d="M47.719,12.768H11.154L8.203,0.589H0v1.739h6.834l8.482,34.992c-1.809,0.527-3.137,2.176-3.137,4.158
			c0,2.398,1.947,4.35,4.35,4.35s4.35-1.951,4.35-4.35c0-0.986-0.34-1.885-0.89-2.609h12.218c-0.551,0.725-0.889,1.623-0.889,2.609
			c0,2.398,1.945,4.35,4.35,4.35c2.402,0,4.35-1.951,4.35-4.35c0-2.402-1.947-4.35-4.35-4.35l0,0H17.061l-0.844-3.48h24.424
			L47.719,12.768z M19.139,41.479c0,1.438-1.17,2.611-2.609,2.611s-2.609-1.174-2.609-2.611c0-1.441,1.17-2.609,2.609-2.609
			S19.139,40.037,19.139,41.479z M38.278,41.479c0,1.438-1.171,2.611-2.61,2.611s-2.609-1.174-2.609-2.611
			c0-1.441,1.17-2.609,2.609-2.609S38.278,40.037,38.278,41.479z"/>
	</g>
	<g>
		<g>
			<text transform="matrix(1 0 0 1 188.7627 39.9102)" fill="#2C649D" font-family="'OpenSans-Bold'" font-size="34">25</text>
		</g>
		<g>
			<g>
				<g>
					<g>
						<g>
							<g>
								<path fill="#FFFFFF" d="M168.393,46.379c-0.305,0-0.552-0.246-0.552-0.551v-2.336c0-0.305,0.247-0.551,0.552-0.551h6.227
									c0.305,0,0.552,0.246,0.552,0.551v2.336c0,0.305-0.247,0.551-0.552,0.551H168.393z"/>
								<path fill="#FFFFFF" d="M174.619,43.492v2.336h-6.227v-2.336H174.619 M174.619,42.391h-6.227
									c-0.609,0-1.103,0.492-1.103,1.102v2.336c0,0.609,0.493,1.102,1.103,1.102h6.227c0.609,0,1.103-0.492,1.103-1.102v-2.336
									C175.722,42.883,175.229,42.391,174.619,42.391L174.619,42.391z"/>
							</g>
							<g>
								<path fill="#FFFFFF" d="M137.975,46.379c-0.305,0-0.552-0.246-0.552-0.551v-2.336c0-0.305,0.247-0.551,0.552-0.551h6.221
									c0.305,0,0.552,0.246,0.552,0.551v2.336c0,0.305-0.247,0.551-0.552,0.551H137.975z"/>
								<path fill="#FFFFFF" d="M144.195,43.492v2.336h-6.221v-2.336H144.195 M144.195,42.391h-6.221
									c-0.609,0-1.103,0.492-1.103,1.102v2.336c0,0.609,0.493,1.102,1.103,1.102h6.221c0.609,0,1.103-0.492,1.103-1.102v-2.336
									C145.298,42.883,144.805,42.391,144.195,42.391L144.195,42.391z"/>
							</g>
						</g>
						<g>
							<rect x="135.206" y="32.605" fill="#FFFFFF" width="42.182" height="11.121"/>
							<g>
								<path fill="#FFFFFF" d="M176.836,33.156v10.018h-41.078V33.156H176.836 M177.938,32.055h-1.103h-41.078h-1.103v1.102v10.018
									v1.104h1.103h41.078h1.103v-1.104V33.156V32.055L177.938,32.055z"/>
							</g>
						</g>
					</g>
					<g>
						<g>
							<path fill="#FFFFFF" d="M155.162,17.624c-4.31,0-7.815-3.502-7.815-7.808c0-4.309,3.506-7.813,7.815-7.813
								c4.307,0,7.812,3.505,7.812,7.813C162.974,14.122,159.469,17.624,155.162,17.624z"/>
							<g>
								<path fill="#FFFFFF" d="M155.162,2.554c4.008,0,7.26,3.253,7.26,7.262c0,4.008-3.252,7.257-7.26,7.257
									c-4.012,0-7.264-3.249-7.264-7.257C147.898,5.807,151.15,2.554,155.162,2.554 M155.162,1.451
									c-4.613,0-8.366,3.753-8.366,8.365c0,4.609,3.753,8.359,8.366,8.359c4.611,0,8.362-3.75,8.362-8.359
									C163.524,5.204,159.773,1.451,155.162,1.451L155.162,1.451z"/>
							</g>
						</g>
						
							<line fill="#FFFFFF" stroke="#FFFFFF" stroke-linejoin="round" stroke-miterlimit="10" x1="157.829" y1="16.102" x2="157.829" y2="34.102"/>
						
							<line fill="#FFFFFF" stroke="#FFFFFF" stroke-linejoin="round" stroke-miterlimit="10" x1="154.829" y1="16.102" x2="154.829" y2="34.102"/>
					</g>
				</g>
			</g>
		</g>
	</g>
</g>
</svg>
