<?xml version="1.0" encoding="utf-8"?>
<!-- Generator: Adobe Illustrator 16.0.0, SVG Export Plug-In . SVG Version: 6.00 Build 0)  -->
<!DOCTYPE svg PUBLIC "-//W3C//DTD SVG 1.1//EN" "http://www.w3.org/Graphics/SVG/1.1/DTD/svg11.dtd">
<svg version="1.1" id="Layer_1" xmlns="http://www.w3.org/2000/svg" xmlns:xlink="http://www.w3.org/1999/xlink" x="0px" y="0px"
	 width="43.283px" height="45.479px" viewBox="0 0 43.283 45.479" enable-background="new 0 0 43.283 45.479" xml:space="preserve">
<g>
	<g>
		<g>
			<g>
				<g>
					<g>
						<path fill="#FFFFFF" d="M33.737,44.929c-0.305,0-0.552-0.247-0.552-0.552v-2.335c0-0.305,0.247-0.552,0.552-0.552h6.227
							c0.305,0,0.552,0.247,0.552,0.552v2.335c0,0.305-0.247,0.552-0.552,0.552H33.737z"/>
						<path fill="#FFFFFF" d="M39.964,42.042v2.335h-6.227v-2.335H39.964 M39.964,40.939h-6.227c-0.609,0-1.103,0.493-1.103,1.103
							v2.335c0,0.609,0.493,1.103,1.103,1.103h6.227c0.609,0,1.103-0.493,1.103-1.103v-2.335
							C41.066,41.433,40.573,40.939,39.964,40.939L39.964,40.939z"/>
					</g>
					<g>
						<path fill="#FFFFFF" d="M3.319,44.929c-0.305,0-0.551-0.247-0.551-0.552v-2.335c0-0.305,0.247-0.552,0.551-0.552H9.54
							c0.305,0,0.551,0.247,0.551,0.552v2.335c0,0.305-0.247,0.552-0.551,0.552H3.319z"/>
						<path fill="#FFFFFF" d="M9.54,42.042v2.335H3.319v-2.335H9.54 M9.54,40.939H3.319c-0.609,0-1.103,0.493-1.103,1.103v2.335
							c0,0.609,0.494,1.103,1.103,1.103H9.54c0.609,0,1.103-0.493,1.103-1.103v-2.335C10.643,41.433,10.149,40.939,9.54,40.939
							L9.54,40.939z"/>
					</g>
				</g>
				<g>
					<rect x="0.551" y="31.154" fill="#FFFFFF" width="42.181" height="11.121"/>
					<g>
						<path fill="#FFFFFF" d="M42.181,31.706v10.018H1.103V31.706H42.181 M43.283,30.604h-1.103H1.103H0v1.103v10.018v1.103h1.103
							h41.078h1.103v-1.103V31.706V30.604L43.283,30.604z"/>
					</g>
				</g>
			</g>
			<g>
				<g>
					<path fill="#FFFFFF" d="M20.506,16.173c-4.309,0-7.814-3.502-7.814-7.808c0-4.309,3.505-7.813,7.814-7.813
						c4.307,0,7.812,3.505,7.812,7.813C28.318,12.671,24.813,16.173,20.506,16.173z"/>
					<g>
						<path fill="#FFFFFF" d="M20.506,1.103c4.008,0,7.26,3.253,7.26,7.262c0,4.008-3.252,7.257-7.26,7.257
							c-4.011,0-7.263-3.249-7.263-7.257C13.243,4.356,16.495,1.103,20.506,1.103 M20.506,0c-4.613,0-8.366,3.753-8.366,8.365
							c0,4.609,3.753,8.359,8.366,8.359c4.612,0,8.363-3.75,8.363-8.359C28.869,3.753,25.118,0,20.506,0L20.506,0z"/>
					</g>
				</g>
				
					<line fill="#FFFFFF" stroke="#FFFFFF" stroke-linejoin="round" stroke-miterlimit="10" x1="22.841" y1="14.984" x2="22.841" y2="32.984"/>
				
					<line fill="#FFFFFF" stroke="#FFFFFF" stroke-linejoin="round" stroke-miterlimit="10" x1="19.841" y1="14.984" x2="19.841" y2="32.984"/>
			</g>
		</g>
	</g>
</g>
</svg>
