<?xml version="1.0" encoding="utf-8"?>
<!-- Generator: Adobe Illustrator 16.0.0, SVG Export Plug-In . SVG Version: 6.00 Build 0)  -->
<!DOCTYPE svg PUBLIC "-//W3C//DTD SVG 1.1//EN" "http://www.w3.org/Graphics/SVG/1.1/DTD/svg11.dtd">
<svg version="1.1" id="Layer_1" xmlns="http://www.w3.org/2000/svg" xmlns:xlink="http://www.w3.org/1999/xlink" x="0px" y="0px"
	 width="48px" height="51.979px" viewBox="0 0 48 51.979" enable-background="new 0 0 48 51.979" xml:space="preserve">
<g>
	<g>
		<text transform="matrix(1 0 0 1 -2.9785 82.5)" fill="#3C83C5" font-family="'OpenSans'" font-size="16">live (3)</text>
	</g>
	<g>
		<path fill="#3C83C5" d="M41.021,36.071V20c0-8.369-6.055-15.31-14.021-16.722V2c0-1.104-0.894-2-2-2h-2c-1.104,0-2,0.896-2,2
			v1.283C13.056,4.711,7.02,11.645,7.02,20v16.071L0,41.753v3.243h48v-3.243L41.021,36.071z"/>
		<path fill="#3C83C5" d="M23.999,51.979c2.764,0,5.005-2.236,5.005-5H18.999C18.999,49.743,21.241,51.979,23.999,51.979z"/>
	</g>
</g>
</svg>
